<?xml version="1.0" encoding="UTF-8" standalone="no"?>
<!DOCTYPE svg PUBLIC "-//W3C//DTD SVG 1.1//EN" "http://www.w3.org/Graphics/SVG/1.1/DTD/svg11.dtd">
<svg width="100%" height="100%" viewBox="0 0 3840 2160" version="1.1" xmlns="http://www.w3.org/2000/svg" xmlns:xlink="http://www.w3.org/1999/xlink" xml:space="preserve" xmlns:serif="http://www.serif.com/" style="fill-rule:evenodd;clip-rule:evenodd;stroke-linejoin:round;stroke-miterlimit:2;">
    <g transform="matrix(2.24347,-1.73392e-31,1.73392e-31,2.24347,-2438.11,-1400.83)">
        <g transform="matrix(0.248306,-6.16298e-33,1.2326e-32,0.682471,1324.24,364.267)">
            <path d="M1886.31,647.485L2072.71,810.382L2072.71,1377.62C2072.71,1412.97 2088.53,1462.29 2120.16,1525.59L1652.45,1525.59C1684.08,1462.29 1699.9,1412.97 1699.9,1377.62L1699.9,810.382L1886.31,647.485Z" style="fill-rule:nonzero;"/>
        </g>
        <g transform="matrix(0.248306,-6.16298e-33,1.2326e-32,0.682471,1579,364.267)">
            <path d="M1886.31,647.485L2072.71,810.382L2072.71,1377.62C2072.71,1412.97 2088.53,1462.29 2120.16,1525.59L1652.45,1525.59C1684.08,1462.29 1699.9,1412.97 1699.9,1377.62L1699.9,810.382L1886.31,647.485Z" style="fill-rule:nonzero;"/>
        </g>
        <g transform="matrix(-0.248306,3.04087e-17,-8.35786e-17,-0.682471,2388.38,1847.33)">
            <path d="M1886.31,647.485L2072.71,1197.08L2072.71,1377.62C2072.71,1412.97 2088.53,1462.29 2120.16,1525.59L1652.45,1525.59C1684.08,1462.29 1699.9,1412.97 1699.9,1377.62L1699.9,1197.08L1886.31,647.485Z" style="fill-rule:nonzero;"/>
        </g>
    </g>
</svg>
