<?xml version="1.0" encoding="UTF-8" standalone="no"?>
<!DOCTYPE svg PUBLIC "-//W3C//DTD SVG 1.1//EN" "http://www.w3.org/Graphics/SVG/1.1/DTD/svg11.dtd">
<svg width="100%" height="100%" viewBox="0 0 3840 2160" version="1.1" xmlns="http://www.w3.org/2000/svg" xmlns:xlink="http://www.w3.org/1999/xlink" xml:space="preserve" xmlns:serif="http://www.serif.com/" style="fill-rule:evenodd;clip-rule:evenodd;stroke-linejoin:round;stroke-miterlimit:2;">
    <rect x="-331.311" y="-264.4" width="4401.32" height="2672.41"/>
    <g transform="matrix(1.96963,0,0,1.96963,-2646.09,-538.619)">
        <g transform="matrix(0.621655,0,0,0.354784,1316.61,434.528)">
            <g>
                <path d="M819.348,810.382L819.348,1266.64C819.348,1314.32 827.559,1352.55 843.98,1381.32C860.401,1410.09 882.452,1424.48 910.133,1424.48C937.814,1424.48 959.865,1410.09 976.286,1381.32C992.706,1352.55 1000.92,1314.32 1000.92,1266.64L1000.92,810.382C1000.92,775.032 997.633,725.707 991.064,662.407L1088.18,662.407C1081.61,725.707 1078.33,775.032 1078.33,810.382L1078.33,1266.64C1078.33,1351.31 1063.08,1418.93 1032.59,1469.49C1002.09,1520.04 961.272,1545.32 910.133,1545.32C858.993,1545.32 818.175,1520.04 787.679,1469.49C757.183,1418.93 741.935,1351.31 741.935,1266.64L741.935,810.382C741.935,775.032 738.651,725.707 732.083,662.407L829.201,662.407C822.632,725.707 819.348,775.032 819.348,810.382Z" style="fill:white;fill-rule:nonzero;"/>
                <path d="M1243.71,662.407C1237.14,725.707 1233.86,775.032 1233.86,810.382L1233.86,1377.62C1233.86,1412.97 1237.14,1462.29 1243.71,1525.59L1146.59,1525.59C1153.16,1462.29 1156.45,1412.97 1156.45,1377.62L1156.45,810.382C1156.45,775.032 1153.16,725.707 1146.59,662.407L1243.71,662.407Z" style="fill:white;fill-rule:nonzero;"/>
                <path d="M1569.55,802.983L1406.98,1404.75L1516.07,1404.75C1536.24,1404.75 1564.39,1398.99 1600.52,1387.48L1600.52,1525.59L1282.42,1525.59C1299.78,1480.38 1315.26,1433.52 1328.87,1385.02L1491.43,783.253L1382.35,783.253C1362.18,783.253 1334.03,789.007 1297.9,800.517L1297.9,662.407L1616,662.407C1598.64,707.621 1583.16,754.48 1569.55,802.983Z" style="fill:white;fill-rule:nonzero;"/>
                <path d="M1750.42,662.407C1743.85,725.707 1740.56,775.032 1740.56,810.382L1740.56,1404.75L1874.28,1404.75C1894.45,1404.75 1922.6,1398.99 1958.73,1387.48L1958.73,1525.59L1653.3,1525.59C1659.87,1462.29 1663.15,1412.97 1663.15,1377.62L1663.15,810.382C1663.15,775.032 1659.87,725.707 1653.3,662.407L1750.42,662.407Z" style="fill:white;fill-rule:nonzero;"/>
                <path d="M2088.92,662.407C2082.35,725.707 2079.07,775.032 2079.07,810.382L2079.07,1377.62C2079.07,1412.97 2082.35,1462.29 2088.92,1525.59L1991.8,1525.59C1998.37,1462.29 2001.66,1412.97 2001.66,1377.62L2001.66,810.382C2001.66,775.032 1998.37,725.707 1991.8,662.407L2088.92,662.407Z" style="fill:white;fill-rule:nonzero;"/>
                <path d="M2421.8,1269.1L2421.8,810.382C2421.8,775.032 2418.51,725.707 2411.95,662.407L2509.06,662.407C2502.49,725.707 2499.21,775.032 2499.21,810.382L2499.21,1377.62C2499.21,1412.97 2502.49,1462.29 2509.06,1525.59L2421.8,1525.59L2238.82,918.896L2238.82,1377.62C2238.82,1412.97 2242.11,1462.29 2248.67,1525.59L2151.56,1525.59C2158.12,1462.29 2161.41,1412.97 2161.41,1377.62L2161.41,810.382C2161.41,775.032 2158.12,725.707 2151.56,662.407L2238.82,662.407L2421.8,1269.1Z" style="fill:white;fill-rule:nonzero;"/>
                <path d="M2560.44,1094C2560.44,956.712 2583.19,847.17 2628.7,765.373C2674.21,683.575 2734.97,642.677 2810.97,642.677C2846.16,642.677 2878.3,651.925 2907.39,670.422C2936.48,688.919 2961.58,715.637 2982.69,750.575C3003.8,785.514 3020.93,827.234 3034.07,875.737L2941.17,875.737C2910.2,800.928 2866.81,763.523 2810.97,763.523C2758.9,763.523 2717.26,793.529 2686.06,853.541C2654.86,913.553 2639.26,993.706 2639.26,1094C2639.26,1194.29 2654.86,1274.45 2686.06,1334.46C2717.26,1394.47 2758.9,1424.48 2810.97,1424.48C2854.14,1424.48 2889.21,1406.19 2916.19,1369.6C2943.16,1333.02 2956.65,1289.25 2956.65,1238.28L2956.68,1137.02L2998.64,1136.6C2998.64,1136.6 3018.62,1140.27 3034.07,1147.6L3034.07,1377.62C3034.07,1412.97 3037.35,1462.29 3043.92,1525.59L2956.65,1525.59L2956.65,1444.21C2920.53,1511.62 2867.98,1545.32 2799.01,1545.32C2728.64,1545.32 2671.28,1504.01 2626.94,1421.39C2582.61,1338.78 2560.44,1229.64 2560.44,1094Z" style="fill:white;fill-rule:nonzero;"/>
            </g>
        </g>
        <g transform="matrix(2.02085,0,0,2.02085,-296.778,-634.233)">
            <g transform="matrix(0.307995,0,0,0.175775,346.627,527.867)">
                <path d="M2069.92,1423.24C2024.41,1504.63 1963.65,1545.32 1887.65,1545.32C1811.64,1545.32 1750.88,1504.42 1705.38,1422.63C1659.87,1340.83 1637.11,1231.29 1637.11,1094C1637.11,956.712 1659.87,847.17 1705.38,765.373C1750.88,683.575 1811.64,642.677 1887.65,642.677C1963.65,642.677 2024.41,683.575 2069.92,765.373C2115.43,847.17 2138.18,956.712 2138.18,1094C2138.18,1231.29 2115.43,1341.04 2069.92,1423.24ZM1762.38,853.541C1731.41,913.553 1715.93,993.706 1715.93,1094C1715.93,1194.29 1731.53,1274.45 1762.73,1334.46C1793.93,1394.47 1835.57,1424.48 1887.65,1424.48C1939.73,1424.48 1981.37,1394.47 2012.57,1334.46C2043.76,1274.45 2059.36,1194.29 2059.36,1094C2059.36,993.706 2043.76,913.553 2012.57,853.541C1981.37,793.529 1939.73,763.523 1887.65,763.523C1835.57,763.523 1793.81,793.529 1762.38,853.541Z" style="fill:white;fill-rule:nonzero;"/>
            </g>
            <g transform="matrix(0.198189,-0.198189,0.0857765,0.0857765,506.706,1051.93)">
                <path d="M1936.21,662.407C1929.64,725.707 1926.36,775.032 1926.36,810.382L1926.36,1377.62C1926.36,1412.97 1929.64,1462.29 1936.21,1525.59C1936.21,1525.59 1890.51,1438.27 1869.55,1331.51C1846.94,1216.27 1848.94,1080.31 1848.94,1061.96L1848.94,810.382C1848.94,775.032 1845.66,725.707 1839.09,662.407L1936.21,662.407Z" style="fill:white;fill-rule:nonzero;"/>
            </g>
            <g transform="matrix(0,0.280281,-0.121306,2.77556e-17,1817.55,195.944)">
                <path d="M1936.21,662.407C1929.64,725.707 1926.36,775.032 1926.36,810.382L1926.36,1377.62C1926.36,1412.97 1929.64,1462.29 1936.21,1525.59C1936.21,1525.59 1890.51,1438.27 1869.55,1331.51C1846.94,1216.27 1848.94,1080.31 1848.94,1061.96L1848.94,810.382C1848.94,775.032 1845.66,725.707 1839.09,662.407L1936.21,662.407Z" style="fill:white;fill-rule:nonzero;"/>
            </g>
        </g>
    </g>
</svg>
